<svg width="317" height="322" viewBox="0 0 317 322" fill="none" xmlns="http://www.w3.org/2000/svg">
<path d="M110.725 0.0491525L170.815 0L170.741 29.5771L144.537 29.499L144.444 86.3572L115.048 86.2589L115.005 115.941C124.785 115.857 134.886 115.902 144.635 115.636L144.425 144.369C134.796 144.318 124.525 144.44 114.95 144.132L114.936 174.403L114.922 203.091L114.873 230.487C113.519 230.703 100.639 230.447 98.0443 230.438L54.8624 230.315L54.7526 202.826C45.4706 202.709 36.1873 202.757 26.9067 202.969L26.8589 144.076L26.8488 83.8066L53.3218 84.1823C53.3393 74.5462 53.1097 63.6569 53.4645 54.1238C62.4361 54.0982 72.1908 54.2557 81.097 53.9722L81.0088 27.8594C90.7736 27.9045 101.088 27.7962 110.789 28.314L110.725 0.0491525Z" fill="#FE8900"/>
<path d="M257.076 55.1248C267.621 54.9437 278.435 55.0198 288.999 54.9727C289.013 63.4736 288.912 71.9738 288.703 80.4727L316.344 80.4781L316.276 145.288C306.601 145.142 296.925 145.116 287.249 145.209C287.336 155.059 287.343 164.91 287.282 174.761L258.336 174.787L258.329 231.184L202.677 231.293C194.153 231.289 180.04 230.865 172.155 231.603C172.316 222.657 172.155 213.287 172.135 204.307L172.162 175.228L199.425 175.307C199.27 165.26 199.317 155.078 199.284 145.019L227.55 144.936C227.611 132.445 227.611 119.953 227.544 107.462L257.029 107.425L257.076 55.1248Z" fill="#FE8900"/>
<path d="M287.249 145.209C296.925 145.116 306.601 145.142 316.276 145.288V204.199C307.193 203.933 295.854 204.354 287.282 203.742C287.336 220.015 287.235 236.581 287.484 252.828L256.989 252.886L257.063 282.947L201.324 282.881C201.688 286.869 202.071 317.84 201.654 321.239C191.325 321.118 180.996 321.165 170.667 321.38L119.52 321.371C118.12 321.063 117.045 320.976 115.631 320.815C114.08 318.86 114.739 288.428 114.72 283.906C117.572 282.18 139.162 282.829 143.872 282.918L143.955 232.456C147.362 231.523 166.438 232.125 172.155 231.602C180.04 230.865 194.153 231.289 202.677 231.293L258.329 231.184L258.336 174.787L287.282 174.761C287.343 164.91 287.336 155.059 287.249 145.209Z" fill="#EF4800"/>
<path d="M26.8589 144.076L26.9067 202.969C36.1873 202.757 45.4706 202.709 54.7526 202.826L54.8624 230.315L98.0443 230.438C100.639 230.447 113.519 230.703 114.873 230.487L115.017 231.108C124.307 231.152 134.718 230.86 143.831 231.138L143.955 231.526L143.872 281.988C139.163 281.899 117.572 281.25 114.72 282.976C114.739 287.499 114.08 317.93 115.631 319.885C117.045 320.047 118.12 320.133 119.52 320.442C117.22 320.76 115.755 320.512 113.431 320.366C93.8037 320.304 74.1765 320.353 54.55 320.511C54.3601 313.83 54.4671 306.761 54.4577 300.048C54.1123 294.742 54.4301 287.274 54.5049 281.811C45.5063 281.666 36.2641 281.752 27.244 281.728C26.3047 278.102 26.8111 259.127 26.8798 254.446C26.9855 246.288 26.9262 237.995 26.9444 229.824C18.294 230.511 8.79249 230.309 0.0484949 230.318L0 144.102L26.8589 144.076Z" fill="#EF4800"/>
<path d="M115.017 231.108C124.307 231.152 134.718 230.86 143.831 231.138L143.955 231.526L143.872 281.988C139.162 281.899 117.572 281.25 114.72 282.976C114.739 287.499 114.08 317.93 115.631 319.885C117.045 320.047 118.12 320.133 119.52 320.442C117.22 320.76 115.755 320.512 113.431 320.366C93.8036 320.304 74.1765 320.353 54.5499 320.511C54.3601 313.83 54.4671 306.761 54.4577 300.048C54.9708 295.859 54.5115 284.904 55.6589 282.061L61.6557 282.093C67.9151 281.519 99.5331 281.36 106.182 282.108C108.593 281.75 112.272 281.79 114.805 281.738L115.017 231.108Z" fill="#702122"/>
<path d="M114.936 174.403C119.298 174.356 142.077 173.578 144.285 175.146L144.324 176.122C143.162 184.613 144.835 193.874 143.508 202.104C141.304 202.865 140.597 202.775 138.319 202.838L114.922 203.091L114.936 174.403Z" fill="#EF4800"/>
</svg>
